# xmcd
#
# Track frame offsets:
#	150
#	15613
#	32676
#	53333
#	70548
#	89592
#	104940
#	123549
#	141261
#	156495
#	173951
# Disc length: 2564 seconds
# Revision: 1
# Processed by: cddbd v1.5.2PL0 Copyright (c) Steve Scherf et al.
#
# Submitted via: libkcddb 0.31
#
DISCID=980a020b
DTITLE=КRАМА - Усе жыцьцё - дзіўны сон
DYEAR=2007
DGENRE=Blues
TTITLE0=Слухай мяне
TTITLE1=Mein Vaterland, auf Wiedersehen
TTITLE2=Лёс арла
TTITLE3=Неба
TTITLE4=Кіно
TTITLE5=Стэфка. Праз 20 год
TTITLE6=Лёля
TTITLE7=Рушым на піва
TTITLE8=Бугі ў начы
TTITLE9=Усё жыцьцё – дзіўны сон
TTITLE10=Бяжы хлопец
EXTD=Krama
EXTT0=
EXTT1=
EXTT2=
EXTT3=
EXTT4=
EXTT5=
EXTT6=
EXTT7=
EXTT8=
EXTT9=
EXTT10=
PLAYORDER=
